<?xml version="1.0" standalone="no"?>
<!DOCTYPE svg PUBLIC "-//W3C//DTD SVG 20010904//EN"
 "http://www.w3.org/TR/2001/REC-SVG-20010904/DTD/svg10.dtd">
<svg version="1.0" xmlns="http://www.w3.org/2000/svg"
 width="1200.000000pt" height="1200.000000pt" viewBox="0 0 1200.000000 1200.000000"
 preserveAspectRatio="xMidYMid meet">
<metadata>
Created by potrace 1.14, written by Peter Selinger 2001-2017
</metadata>
<g transform="translate(0.000000,1200.000000) scale(0.100000,-0.100000)"
fill="#000000" stroke="none">
<path d="M5728 10855 c-2 -2 -40 -6 -83 -9 -44 -3 -80 -5 -80 -6 0 0 -25 -3
-55 -5 -30 -2 -68 -6 -85 -9 -16 -2 -54 -8 -84 -11 -30 -4 -62 -8 -72 -10 -9
-2 -39 -7 -66 -11 -26 -3 -55 -8 -63 -10 -180 -36 -246 -51 -355 -79 -123 -31
-189 -50 -280 -81 -133 -44 -254 -87 -282 -100 -17 -8 -34 -14 -37 -14 -3 0
-36 -14 -73 -31 -38 -17 -99 -45 -138 -62 -126 -57 -348 -173 -422 -220 -24
-15 -45 -27 -48 -27 -7 0 -228 -142 -235 -151 -3 -3 -24 -18 -48 -33 -23 -14
-50 -33 -60 -41 -9 -7 -46 -35 -82 -62 -36 -26 -67 -50 -70 -53 -3 -3 -39 -32
-80 -65 -164 -130 -389 -344 -540 -514 -131 -147 -123 -138 -180 -211 -19 -25
-45 -56 -57 -70 -13 -14 -23 -28 -23 -31 0 -3 -11 -19 -25 -35 -14 -16 -49
-64 -78 -106 -28 -43 -55 -78 -59 -78 -5 0 -8 -5 -8 -11 0 -6 -21 -43 -47 -83
-27 -39 -53 -80 -59 -91 -6 -11 -38 -65 -70 -120 -70 -119 -250 -479 -260
-520 -1 -5 -21 -54 -43 -108 -60 -143 -176 -505 -196 -605 -2 -11 -8 -36 -13
-55 -6 -20 -7 -38 -4 -41 3 -3 0 -6 -7 -6 -7 0 -10 -4 -7 -8 3 -5 1 -24 -4
-43 -5 -19 -11 -50 -14 -70 -3 -20 -8 -42 -11 -50 -2 -8 -9 -43 -14 -79 -6
-36 -12 -76 -15 -90 -5 -27 -16 -105 -21 -160 -2 -19 -7 -57 -10 -85 -26 -237
-27 -837 -1 -995 3 -14 7 -50 10 -80 11 -97 16 -134 23 -170 7 -36 8 -40 16
-100 3 -20 8 -47 11 -60 3 -14 8 -36 10 -50 25 -146 133 -546 167 -615 5 -11
11 -29 13 -40 4 -21 87 -238 110 -290 8 -16 25 -55 39 -86 45 -99 130 -274
136 -279 3 -3 17 -27 30 -55 14 -27 37 -68 51 -90 15 -23 33 -55 41 -73 7 -18
17 -32 21 -32 5 0 8 -5 8 -11 0 -8 181 -286 211 -323 5 -6 58 -74 118 -151 60
-77 120 -152 133 -166 210 -236 382 -406 573 -565 39 -32 72 -62 73 -66 2 -5
8 -8 14 -8 5 0 33 -19 61 -43 60 -50 234 -177 242 -177 3 0 11 -5 18 -11 20
-17 138 -93 258 -164 147 -87 478 -249 644 -315 127 -50 433 -155 477 -164 13
-2 57 -14 99 -25 102 -29 193 -49 349 -77 47 -9 94 -18 105 -20 22 -4 66 -10
145 -20 30 -3 69 -8 85 -10 270 -33 782 -38 1020 -9 17 2 57 6 90 10 33 3 74
8 90 11 17 3 39 7 50 8 64 9 133 19 150 22 169 31 412 90 545 131 47 15 90 27
95 28 24 5 283 99 320 116 22 10 74 32 115 49 41 18 100 44 130 58 30 15 57
27 60 27 13 2 286 150 365 198 10 7 49 30 85 52 36 21 67 42 70 45 3 3 17 11
33 17 15 7 27 17 27 23 0 5 4 10 10 10 12 0 184 120 188 132 2 4 10 8 18 8 8
0 14 4 14 8 0 4 12 15 28 25 15 9 41 29 58 44 17 15 49 42 70 58 60 47 151
127 238 208 106 99 148 141 236 237 52 57 104 113 115 125 23 25 141 171 169
209 11 15 30 39 43 54 13 15 36 45 51 67 15 22 29 42 32 45 3 3 39 57 81 120
107 163 132 202 145 229 4 7 29 51 56 98 60 105 195 380 241 493 67 165 128
340 190 545 19 62 78 301 82 335 2 14 8 46 14 73 6 26 13 64 16 83 2 20 7 44
9 53 3 9 7 34 10 56 2 22 7 60 10 85 14 109 17 135 35 345 4 49 7 196 6 325
-2 205 -5 276 -20 450 -5 50 -24 211 -29 235 -2 11 -7 43 -11 70 -5 28 -9 52
-10 55 0 3 -5 28 -10 55 -4 28 -10 57 -12 65 -2 8 -5 26 -7 40 -5 30 -7 40
-47 200 -31 127 -55 208 -91 314 -11 32 -21 63 -23 70 -1 6 -5 20 -10 31 -4
11 -20 56 -37 100 -29 82 -32 87 -66 165 -11 25 -23 55 -26 67 -12 39 -198
408 -207 411 -5 2 -9 9 -9 15 0 7 -27 56 -60 110 -33 55 -60 103 -60 108 0 5
-3 9 -7 9 -5 0 -26 30 -48 66 -53 87 -131 196 -235 329 -81 104 -108 137 -155
189 -11 13 -51 58 -90 101 -129 144 -334 341 -479 458 -21 18 -43 37 -50 42
-26 25 -227 176 -300 226 -113 77 -127 87 -163 106 -18 9 -33 20 -33 25 0 4
-4 8 -10 8 -5 0 -38 17 -72 38 -117 72 -367 202 -490 256 -21 9 -54 23 -73 31
-270 119 -707 256 -965 301 -14 2 -45 9 -70 14 -25 5 -63 12 -85 15 -23 3 -50
7 -62 9 -12 3 -50 7 -84 11 -35 4 -66 8 -70 10 -3 2 -41 7 -85 10 -43 4 -95 8
-114 11 -45 6 -657 14 -662 9z m412 -998 l155 -2 -2 -207 c-1 -115 2 -209 5
-209 4 -1 30 -3 57 -4 28 -1 73 -5 100 -10 28 -4 66 -9 85 -11 61 -5 205 -32
312 -59 507 -126 891 -414 1126 -845 36 -66 130 -288 136 -321 3 -13 5 -25 5
-26 1 -2 1 -5 2 -8 0 -2 5 -19 10 -37 6 -18 12 -44 15 -58 3 -14 7 -33 10 -42
24 -79 45 -261 49 -425 l4 -133 -586 3 -586 2 -3 34 c-2 19 -5 53 -9 75 -3 23
-8 57 -11 76 -2 19 -6 46 -9 60 -8 39 -12 61 -19 115 -35 244 -149 420 -330
506 -93 45 -246 81 -320 77 l-51 -3 -2 -125 c-10 -559 -15 -1588 -9 -1599 3
-4 23 -11 44 -14 58 -10 383 -113 447 -142 17 -8 66 -28 110 -44 68 -25 119
-47 305 -134 14 -6 32 -17 42 -25 9 -7 23 -14 31 -16 8 -1 25 -9 38 -17 13 -9
31 -18 39 -22 8 -4 33 -18 55 -32 22 -14 51 -31 65 -38 84 -42 309 -213 416
-317 77 -75 224 -241 224 -253 0 -3 14 -26 31 -51 67 -100 156 -304 174 -398
3 -12 7 -34 10 -48 15 -79 19 -160 20 -380 0 -216 -5 -305 -21 -415 -11 -69
-30 -161 -50 -238 -9 -34 -18 -69 -20 -77 -21 -88 -176 -438 -203 -460 -4 -3
-22 -30 -41 -60 -95 -153 -279 -339 -455 -462 -65 -45 -209 -129 -260 -152
-22 -9 -53 -25 -70 -34 -16 -9 -31 -15 -33 -14 -1 2 -17 -4 -35 -12 -17 -8
-79 -30 -137 -49 -88 -30 -121 -39 -170 -52 -3 0 -21 -6 -40 -12 -19 -7 -55
-15 -80 -18 -24 -4 -47 -8 -51 -11 -4 -2 -26 -6 -50 -8 -24 -3 -55 -8 -69 -11
-14 -3 -83 -7 -155 -11 -71 -3 -135 -7 -142 -9 -8 -3 -12 -53 -13 -167 -1 -90
-3 -176 -3 -193 l-2 -30 -200 1 -200 0 -1 202 c0 111 -3 204 -6 208 -3 3 -48
7 -100 9 -51 2 -107 6 -123 9 -17 3 -58 8 -91 11 -34 3 -76 10 -93 15 -17 5
-31 7 -31 5 0 -3 -10 -1 -23 4 -12 5 -43 12 -69 15 -38 5 -215 48 -288 70
-125 38 -371 149 -414 189 -11 9 -24 17 -28 17 -11 0 -114 70 -152 104 -16 14
-32 26 -35 26 -7 0 -118 108 -176 171 -107 116 -191 242 -268 399 -127 263
-193 546 -201 871 l-3 126 619 -3 c341 -1 621 -4 623 -6 2 -3 10 -59 21 -158
2 -25 7 -56 10 -70 3 -14 8 -36 10 -50 3 -14 9 -50 15 -80 6 -30 12 -66 14
-80 22 -178 145 -350 315 -442 96 -52 276 -90 402 -86 l82 3 2 360 c2 198 5
611 8 917 4 425 2 559 -7 565 -7 4 -68 25 -137 46 -259 78 -437 138 -472 157
-10 6 -24 10 -32 10 -12 0 -51 15 -131 50 -11 5 -58 25 -105 45 -128 55 -415
223 -471 276 -8 8 -41 37 -74 64 -118 98 -202 192 -295 330 -64 95 -150 258
-150 283 0 7 -4 20 -9 30 -13 22 -40 111 -47 149 -3 15 -7 36 -10 46 -3 10 -7
32 -10 50 -2 18 -7 50 -11 72 -9 56 -10 363 0 465 7 86 12 120 24 175 3 17 7
39 9 50 16 100 101 372 125 401 6 8 9 14 6 14 -16 0 125 257 187 340 140 188
287 326 487 456 78 51 312 164 389 189 30 10 61 22 68 28 6 5 12 7 12 4 0 -4
19 1 43 9 47 17 42 16 147 39 94 21 96 21 150 31 51 9 59 11 63 14 5 4 44 10
165 27 95 13 122 21 123 33 1 8 2 100 3 203 1 130 6 191 14 195 6 4 28 6 49 5
21 -2 108 -4 193 -6z"/>
<path d="M5795 8413 c-11 -2 -45 -9 -75 -15 -30 -6 -57 -12 -60 -13 -3 0 -11
-4 -17 -8 -7 -5 -13 -6 -13 -3 0 12 -142 -50 -217 -96 -76 -46 -203 -158 -203
-179 0 -4 -7 -15 -16 -23 -21 -22 -74 -128 -68 -138 3 -4 0 -8 -7 -8 -7 0 -10
-3 -6 -6 3 -3 0 -22 -8 -43 -32 -91 -35 -327 -5 -406 5 -14 8 -25 5 -25 -7 0
29 -99 56 -152 68 -134 183 -253 335 -345 53 -32 183 -92 212 -98 10 -2 46
-10 81 -20 35 -9 65 -14 67 -12 2 2 7 314 10 693 3 379 7 737 7 796 l2 107
-30 -1 c-16 -1 -39 -3 -50 -5z"/>
<path d="M6259 5338 c-2 -26 -8 -552 -11 -1072 -3 -616 -15 -554 98 -531 315
66 555 248 644 488 30 81 33 102 35 251 2 121 0 151 -22 230 -14 50 -26 96
-27 102 -1 7 -7 18 -13 25 -6 8 -14 24 -17 36 -12 38 -96 145 -170 216 -38 37
-74 67 -78 67 -4 0 -29 16 -55 37 -58 44 -166 95 -286 134 -103 34 -97 33 -98
17z"/>
</g>
</svg>
